<svg width="860" height="420" viewBox="0 0 860 420" xmlns="http://www.w3.org/2000/svg" xmlns:xlink="http://www.w3.org/1999/xlink"><defs><path d="M20.511 0H839.49c7.132 0 9.718.743 12.326 2.137a14.538 14.538 0 016.048 6.048C859.257 10.793 860 13.38 860 20.511V399.49c0 7.132-.743 9.718-2.137 12.326a14.538 14.538 0 01-6.048 6.048c-2.608 1.394-5.194 2.137-12.326 2.137H20.51c-7.132 0-9.718-.743-12.326-2.137a14.538 14.538 0 01-6.048-6.048C.743 409.207 0 406.62 0 399.489V20.51c0-7.132.743-9.718 2.137-12.326a14.538 14.538 0 016.048-6.048C10.793.743 13.38 0 20.511 0z" id="a"/></defs><g fill="none" fill-rule="evenodd"><mask id="b" fill="#fff"><use xlink:href="#a"/></mask><use fill="#F3F6F9" xlink:href="#a"/><g mask="url(#b)"><path fill="#5675C1" fill-rule="nonzero" d="M0 0h860v420H0z"/><g transform="translate(-40 -130)"><path d="M858.29 403.22h-99.42a5.77 5.77 0 01-5.49-7.56l63.3-194.84a5.78 5.78 0 015.5-4h99.47a5.78 5.78 0 015.49 7.56l-63.36 194.85a5.77 5.77 0 01-5.49 3.99z" fill="#60E2E2" fill-rule="nonzero" opacity=".2"/><path d="M555.13 333.91h17.29c31.88-150.9-37-333.67-37-333.67H.31v609.22c99.56 78.38 346.56 25.11 483.74-117.5l59.63-150.32a12.31 12.31 0 0111.45-7.73z" fill="#1A427C" fill-rule="nonzero"/><path d="M648.44 333.91h-76c-.67 3.16-1.4 6.3-2.21 9.42-14.73 56.58-45.67 106.5-86.18 148.63l-24.2 61h113.23l82.66-208.36a7.85 7.85 0 00-7.3-10.69z" fill="#2E528E" fill-rule="nonzero"/><circle fill="#2E528E" fill-rule="nonzero" cx="336.87" cy="531.91" r="164"/><path d="M506.39 351.39h-47.63a3 3 0 01-2.76-4.19 3 3 0 012.76-1.81h47.63a3 3 0 012.76 4.18 3 3 0 01-2.76 1.82z" fill="#60E2E2" fill-rule="nonzero"/><path d="M483.18 363.72H453.6a3 3 0 01-2.76-4.18 3 3 0 012.76-1.82h29.58a3 3 0 012.76 4.19 3 3 0 01-2.76 1.81z" fill="#FFF" fill-rule="nonzero"/><path d="M500.38 363.72h-1.21a3 3 0 01-2.76-4.18 3 3 0 012.76-1.82h2.76a2 2 0 011.82 2.76l-.62 1.43a3 3 0 01-2.75 1.81z" fill="#FFF" fill-rule="nonzero" opacity=".3"/><path d="M452.69 392.1h-1.21a3 3 0 01-2.75-4.18 3 3 0 012.75-1.82h1.21a3 3 0 012.76 4.19 3 3 0 01-2.76 1.81zM448.59 402.12h-1.21a3 3 0 01-2.75-4.19 3 3 0 012.75-1.81h1.21a3 3 0 012.76 4.18 3 3 0 01-2.76 1.82zM444.49 412.14h-1.21a3 3 0 01-2.75-4.19 3 3 0 012.75-1.81h1.21a3 3 0 012.76 4.18 3 3 0 01-2.76 1.82z" fill="#FFF" fill-rule="nonzero"/><path d="M493.4 402.12h-25.38a3 3 0 01-2.76-4.19 3 3 0 012.76-1.81h25.38a3 3 0 012.75 4.18 3 3 0 01-2.75 1.82z" fill="#60E2E2" fill-rule="nonzero"/><path d="M471.38 412.14H457.7a3 3 0 01-2.75-4.19 3 3 0 012.75-1.81h13.68a3 3 0 012.75 4.18 3 3 0 01-2.75 1.82z" fill="#FFF" fill-rule="nonzero" opacity=".3"/><path d="M440.39 422.16h-1.21a3 3 0 01-2.75-4.19 3 3 0 012.75-1.81h1.21a3 3 0 012.76 4.18 3 3 0 01-2.76 1.82zM461.27 442.29h-10.16a3 3 0 01-2.76-4.19 3 3 0 012.76-1.81h10.16a3 3 0 012.76 4.18 3 3 0 01-2.76 1.82zM474.8 442.29h-1.85a3 3 0 01-2.76-4.19 3 3 0 012.76-1.81h1.85a3 3 0 012.75 4.18 3 3 0 01-2.75 1.82zM488.98 442.29h-1.2a3 3 0 01-2.76-4.19 3 3 0 012.76-1.81h1.2a3 3 0 012.76 4.18 3 3 0 01-2.76 1.82zM509.65 363.72a2 2 0 01-1.82-2.75l.89-2.05a2 2 0 011.81-1.2 2 2 0 011.81 2.76l-.88 2.05a2 2 0 01-1.81 1.19z" fill="#FFF" fill-rule="nonzero"/><path d="M558.87 363.72h-28.75a3 3 0 01-2.75-4.18 3 3 0 012.75-1.82h28.75a3 3 0 012.76 4.19 3 3 0 01-2.76 1.81z" fill="#FFF" fill-rule="nonzero" opacity=".3"/><path d="M478.02 376.06h-29.58a3 3 0 01-2.75-4.19 3 3 0 012.75-1.81h29.58a3 3 0 012.76 4.18 3 3 0 01-2.76 1.82z" fill="#FFF" fill-rule="nonzero"/><path d="M507.25 376.06h-13.24a3 3 0 01-2.76-4.19 3 3 0 012.76-1.81h13.24a3 3 0 012.76 4.18 3 3 0 01-2.76 1.82z" fill="#FFF" fill-rule="nonzero" opacity=".3"/><path d="M516.53 376.06a2 2 0 01-1.82-2.76l.88-2a2 2 0 011.82-1.19 2 2 0 011.81 2.75l-.88 2a2 2 0 01-1.81 1.2zM540.79 376.06h-14.11a3 3 0 01-2.75-4.19 3 3 0 012.75-1.81h14.11a3 3 0 012.75 4.18 3 3 0 01-2.75 1.82z" fill="#FFF" fill-rule="nonzero"/><path d="M478.87 339.06h-15a3 3 0 01-2.76-4.19 3 3 0 012.76-1.81h15a3 3 0 012.76 4.18 3 3 0 01-2.76 1.82z" fill="#FFF" fill-rule="nonzero" opacity=".3"/><path d="M536.87 405.79a3.59 3.59 0 00-3.16 2.39 1.67 1.67 0 001.61 2.38 3.59 3.59 0 003.15-2.38 1.67 1.67 0 00-1.6-2.39zm.66-2c2.44 0 3.77 2 3 4.43a6.66 6.66 0 01-5.86 4.42c-2.44 0-3.77-2-3-4.42a6.66 6.66 0 015.88-4.47l-.02.04zm-.36 11.57l-.67 2h-12.09l.66-2h12.1zm-15.16-8l3.33 5.5-6.9 5.51-1-1.39 5.16-4.12-2.49-4.12 1.9-1.38zm13.39 13.47l-.67 2H516.4l.67-2h18.33zm-1.77 5.45l-.67 2h-18.33l.67-2h18.33zm-.26-30.08l-20.54 10a1.56 1.56 0 00-.8.88l-6.5 20a.74.74 0 00.23.88l14 10a1 1 0 001 0l20.55-10a1.54 1.54 0 00.79-.88l6.5-20a.74.74 0 00-.22-.88l-14-10-.11-.07a1.1 1.1 0 00-.88.01l-.02.06zm3.47-3.09l.21.14 14.05 10a3.25 3.25 0 011 3.83l-6.5 20a6.79 6.79 0 01-3.45 3.83l-20.55 10a4.39 4.39 0 01-4.42 0l-14-10a3.27 3.27 0 01-1-3.83l6.5-20a6.81 6.81 0 013.46-3.83l20.54-10a4.53 4.53 0 014.19-.2l-.03.06z" fill="#FFF"/><path d="M801.27 641.11h-9.58c-8 0-12.44-6.52-9.83-14.56l170.32-524.18c2.62-8 11.25-14.56 19.29-14.56h9.58c8 0 12.44 6.52 9.82 14.56L820.56 626.55c-2.62 8.04-11.25 14.56-19.29 14.56zM862.23 641.11h-9.58c-8 0-12.44-6.52-9.83-14.56l170.32-524.18c2.61-8 11.25-14.56 19.29-14.56h9.58c8 0 12.44 6.52 9.82 14.56L881.51 626.55c-2.64 8.04-11.24 14.56-19.28 14.56z" fill="#1A427C" fill-rule="nonzero"/><path d="M780 290.91h-5.51a.37.37 0 01-.35-.53l.68-2.09a.77.77 0 01.69-.52h5.51a.37.37 0 01.36.52l-.68 2.09a.81.81 0 01-.7.53zM813.04 290.91H783.6a.38.38 0 01-.36-.53l.69-2.09a.77.77 0 01.69-.52h29.44a.36.36 0 01.35.52l-.68 2.09a.78.78 0 01-.69.53zM776.54 301.61h-5.52a.37.37 0 01-.35-.53l.68-2.09a.8.8 0 01.69-.52h5.52a.36.36 0 01.35.52l-.68 2.09a.78.78 0 01-.69.53zM788.72 301.61h-8.59a.37.37 0 01-.35-.53l.68-2.09a.78.78 0 01.69-.52h8.59a.36.36 0 01.35.52l-.68 2.09a.81.81 0 01-.69.53zM798.34 301.61h-5.06a.37.37 0 01-.35-.53l.68-2.09a.77.77 0 01.69-.52h5.06a.36.36 0 01.35.52l-.68 2.09a.78.78 0 01-.69.53z" fill-opacity=".3" fill="#60E2E2"/><path d="M807.05 296.28h-34.29a.38.38 0 01-.36-.53l.69-2.09a.77.77 0 01.69-.52h34.29a.36.36 0 01.35.52l-.68 2.09a.78.78 0 01-.69.53z" fill="#60E2E2"/><path d="M792.6 306.91h-23.31a.37.37 0 01-.35-.53l.68-2.09a.77.77 0 01.69-.52h23.31a.36.36 0 01.35.52l-.68 2.09a.78.78 0 01-.69.53z" fill-opacity=".3" fill="#60E2E2"/><path d="M792.56 285.62h-16.34a.37.37 0 01-.35-.53l.68-2.09a.77.77 0 01.69-.52h16.34a.37.37 0 01.35.52l-.68 2.09a.81.81 0 01-.69.53z" fill="#60E2E2"/><path d="M806.16 285.62h-9.19a.38.38 0 01-.36-.53l.69-2.09a.77.77 0 01.69-.52h9.19a.36.36 0 01.35.52l-.68 2.09a.78.78 0 01-.69.53z" fill-opacity=".3" fill="#60E2E2"/><path d="M783.8 322.91h-19.7a.37.37 0 01-.36-.52l.69-2.1a.77.77 0 01.69-.52h19.75a.36.36 0 01.35.52l-.68 2.1a.79.79 0 01-.74.52z" fill="#60E2E2"/><path d="M789.68 328.26h-27.32a.37.37 0 01-.35-.52l.68-2.1a.8.8 0 01.7-.52h27.31a.36.36 0 01.35.52l-.68 2.1a.79.79 0 01-.69.52zM777.33 317.6h-11.46a.37.37 0 01-.35-.53l.68-2.09a.77.77 0 01.69-.52h11.5a.36.36 0 01.35.52l-.68 2.09a.78.78 0 01-.73.53zM787.68 317.6h-5.06a.37.37 0 01-.35-.53l.68-2.09a.8.8 0 01.69-.52h5.06a.36.36 0 01.35.52l-.68 2.09a.78.78 0 01-.69.53zM794.19 312.27h-26.63a.37.37 0 01-.35-.53l.68-2.09a.77.77 0 01.69-.52h26.63a.36.36 0 01.35.52l-.68 2.09a.78.78 0 01-.69.53zM807.27 312.27h-9.19a.37.37 0 01-.35-.53l.68-2.09a.77.77 0 01.69-.52h9.19a.37.37 0 01.36.52l-.69 2.09a.78.78 0 01-.69.53zM763.87 338.91h-5a.37.37 0 01-.35-.52l.68-2.1a.77.77 0 01.69-.52h5a.36.36 0 01.35.52l-.68 2.1a.79.79 0 01-.69.52zM794.34 338.91h-27.05a.37.37 0 01-.35-.52l.68-2.1a.8.8 0 01.69-.52h27a.36.36 0 01.35.52l-.68 2.1a.79.79 0 01-.64.52zM759.73 349.58h-4.29a.37.37 0 01-.36-.52l.69-2.1a.77.77 0 01.69-.52h4.29a.37.37 0 01.36.52l-.68 2.1a.81.81 0 01-.7.52zM769.65 349.58h-6.78a.37.37 0 01-.35-.52l.68-2.1a.78.78 0 01.69-.52h6.8a.36.36 0 01.35.52l-.68 2.1a.79.79 0 01-.71.52zM777.48 349.58h-3.92a.37.37 0 01-.36-.52l.69-2.1a.77.77 0 01.69-.52h3.92a.37.37 0 01.36.52l-.69 2.1a.79.79 0 01-.69.52zM784.87 344.25h-27.7a.36.36 0 01-.35-.52l.68-2.1a.77.77 0 01.69-.52h27.68a.37.37 0 01.36.52l-.68 2.1a.81.81 0 01-.68.52zM772.49 354.91h-18.78a.37.37 0 01-.36-.52l.68-2.1a.8.8 0 01.7-.52h18.78a.36.36 0 01.35.52l-.68 2.1a.77.77 0 01-.69.52zM773.74 333.59h-13.11a.37.37 0 01-.35-.52l.68-2.1a.78.78 0 01.69-.52h13.11a.36.36 0 01.35.52l-.68 2.1a.79.79 0 01-.69.52z" fill-opacity=".3" fill="#60E2E2"/><path d="M784.81 333.59h-7.29a.37.37 0 01-.35-.52l.68-2.1a.8.8 0 01.69-.52h7.33a.37.37 0 01.36.52l-.68 2.1a.81.81 0 01-.74.52zM764.36 370.91h-15.85a.36.36 0 01-.35-.52l.68-2.1a.77.77 0 01.69-.52h15.85a.36.36 0 01.35.52l-.68 2.1a.78.78 0 01-.69.52z" fill="#60E2E2"/><path d="M768.87 376.23h-22a.36.36 0 01-.35-.52l.68-2.1a.77.77 0 01.69-.52h22a.37.37 0 01.36.52l-.68 2.1a.8.8 0 01-.7.52zM759.41 365.57h-9.17a.36.36 0 01-.35-.52l.68-2.1a.77.77 0 01.69-.52h9.17a.36.36 0 01.35.52l-.68 2.1a.77.77 0 01-.69.52zM767.87 365.57h-3.92a.37.37 0 01-.36-.52l.68-2.1a.8.8 0 01.7-.52h3.9a.36.36 0 01.35.52l-.68 2.1a.77.77 0 01-.67.52zM773.46 360.24h-21.49a.37.37 0 01-.35-.52l.68-2.1a.8.8 0 01.69-.52h21.49a.36.36 0 01.35.52l-.68 2.1a.77.77 0 01-.69.52zM784.11 360.24h-7.24a.36.36 0 01-.35-.52l.68-2.1a.77.77 0 01.69-.52h7.29a.36.36 0 01.35.52l-.68 2.1a.77.77 0 01-.74.52zM810.02 367.76h5.51a.36.36 0 01.35.52l-.68 2.1a.77.77 0 01-.69.52H809a.37.37 0 01-.36-.52l.68-2.1a.8.8 0 01.7-.52zM813.48 357.1h5.51a.37.37 0 01.36.52l-.68 2.1a.8.8 0 01-.7.52h-5.51a.36.36 0 01-.35-.52l.68-2.1a.77.77 0 01.69-.52zM805.76 362.43h11.5a.37.37 0 01.36.52l-.69 2.1a.77.77 0 01-.69.52h-11.5a.36.36 0 01-.35-.52l.68-2.1a.78.78 0 01.69-.52zM809.47 351.77h11.26a.36.36 0 01.35.52l-.68 2.1a.78.78 0 01-.69.52h-11.26a.36.36 0 01-.35-.52l.68-2.1a.77.77 0 01.69-.52z" fill-opacity=".3" fill="#60E2E2"/><path d="M806.15 373.09h7.65a.36.36 0 01.35.52l-.68 2.1a.77.77 0 01-.69.52h-7.65a.36.36 0 01-.35-.52l.68-2.1a.78.78 0 01.69-.52z" fill="#60E2E2"/><path d="M818.27 335.78h7.65a.36.36 0 01.35.52l-.68 2.1a.79.79 0 01-.69.52h-7.65a.36.36 0 01-.35-.52l.68-2.1a.77.77 0 01.69-.52zM812.39 330.45h15.26a.37.37 0 01.36.52l-.68 2.1a.81.81 0 01-.7.52h-15.26a.36.36 0 01-.35-.52l.68-2.1a.77.77 0 01.69-.52zM812.69 341.11h11.5a.36.36 0 01.35.52l-.68 2.1a.79.79 0 01-.69.52h-11.5a.36.36 0 01-.35-.52l.68-2.1a.77.77 0 01.69-.52zM807.87 346.44h14.58a.36.36 0 01.35.52l-.68 2.1a.79.79 0 01-.69.52h-14.56a.36.36 0 01-.35-.52l.68-2.1a.77.77 0 01.67-.52zM826.12 319.79h5a.36.36 0 01.35.52l-.68 2.1a.79.79 0 01-.69.52h-5a.36.36 0 01-.35-.52l.68-2.1a.77.77 0 01.69-.52z" fill-opacity=".3" fill="#60E2E2"/><path d="M830.29 309.13h4.29a.36.36 0 01.35.52l-.68 2.09a.78.78 0 01-.69.53h-4.29a.38.38 0 01-.36-.53l.68-2.09a.8.8 0 01.7-.52z" fill="#60E2E2"/><path d="M817.17 314.46h15.7a.36.36 0 01.35.52l-.68 2.09a.78.78 0 01-.69.53h-15.7a.37.37 0 01-.35-.53l.68-2.09a.8.8 0 01.69-.52z" fill-opacity=".3" fill="#60E2E2"/><path d="M829.58 303.8h6.73a.37.37 0 01.36.52l-.68 2.09a.81.81 0 01-.7.53h-6.73a.37.37 0 01-.35-.53l.68-2.09a.77.77 0 01.69-.52zM816.28 325.12h13.11a.37.37 0 01.35.52l-.68 2.1a.81.81 0 01-.69.52h-13.11a.36.36 0 01-.35-.52l.68-2.1a.77.77 0 01.69-.52z" fill="#60E2E2"/><path d="M825.66 287.81h15.85a.36.36 0 01.35.52l-.68 2.09a.78.78 0 01-.69.53h-15.85a.37.37 0 01-.35-.53l.68-2.09a.77.77 0 01.69-.52zM833.25 282.48h10a.36.36 0 01.35.52l-.68 2.09a.78.78 0 01-.69.53h-10a.38.38 0 01-.36-.53l.68-2.09a.8.8 0 01.7-.52zM830.61 293.14h9.17a.36.36 0 01.35.52l-.68 2.09a.78.78 0 01-.69.53h-9.17a.37.37 0 01-.35-.53l.68-2.09a.77.77 0 01.69-.52zM828.61 298.47h9.44a.37.37 0 01.35.52l-.68 2.09a.81.81 0 01-.69.53h-9.44a.37.37 0 01-.35-.53l.68-2.09a.77.77 0 01.69-.52z" fill-opacity=".3" fill="#60E2E2"/><path d="M851.8 244.13h-23v.06c0 .13-.12.31-.2.55l-.52 1.62a.48.48 0 00.47.69h22.25a1 1 0 00.92-.69l.53-1.62c.07-.24.12-.42.15-.55v-.06h-.6zm-8.63 10.34a2.23 2.23 0 00-2 1.48 1 1 0 001 1.48 2.21 2.21 0 001.95-1.48 1 1 0 00-.95-1.48zm1-3c2.45 0 3.79 2 3 4.43a6.69 6.69 0 01-5.88 4.44c-2.44 0-3.78-2-3-4.44a6.68 6.68 0 015.84-4.38l.04-.05zm5.69-1.48h-22.29a1.06 1.06 0 00-.93.69l-3.4 10.49-.1.31c0 .1 0 .17-.06.24v.06h23.6v-.06c.06-.13.12-.31.21-.55l3.4-10.49a.48.48 0 00-.42-.64l-.01-.05zm2.75-8.87a3.63 3.63 0 012.15.39c.391.257.662.66.75 1.12a4.23 4.23 0 01-.34 2.28l-5.3 16.12a5.71 5.71 0 01-1.13 2.28 4.37 4.37 0 01-1.48 1.12 5.24 5.24 0 01-2.41.39h-21.98a3.63 3.63 0 01-2.15-.39 1.7 1.7 0 01-.75-1.12 3.59 3.59 0 01.25-2l5.31-16.36a5.69 5.69 0 011.14-2.28 4.27 4.27 0 011.48-1.12 4.81 4.81 0 012.11-.39l22.35-.04zm-10.77 26.61a1 1 0 011 1.47 2.22 2.22 0 01-2 1.48H823.1a1 1 0 01-1-1.48 2.24 2.24 0 012-1.47h17.74zM522.15 345.06a1.94 1.94 0 01-1-.25 1.92 1.92 0 01-.87-2.23l4.59-14.77h-6.37a1.92 1.92 0 01-1.58-.83 1.87 1.87 0 01-.21-1.76l7.63-20.16a1.93 1.93 0 011.8-1.24h18.23a1.92 1.92 0 011.46 3.15l-8.47 10.06h7a1.92 1.92 0 011.41 3.21l-22.25 24.21c-.355.38-.85.6-1.37.61zm-.85-21.08h6.2a1.92 1.92 0 011.83 2.48l-2.83 9.12 13.53-14.67h-6.76a1.92 1.92 0 01-1.46-3.15l8.47-10.06h-12.79l-6.19 16.28z" fill="#FFF" fill-rule="nonzero"/><path d="M712.12 310.24a5.24 5.24 0 00-4.62 3.48c-.63 1.93.43 3.49 2.35 3.49a5.23 5.23 0 004.62-3.49c.63-1.92-.43-3.48-2.35-3.48zm-15 10.46a3.51 3.51 0 00-3.08 2.32 1.64 1.64 0 001.57 2.33 3.48 3.48 0 003.08-2.33 1.63 1.63 0 00-1.6-2.32h.03zm23.25 0a3.51 3.51 0 00-3.08 2.32 1.64 1.64 0 001.57 2.33 3.49 3.49 0 003.08-2.33 1.63 1.63 0 00-1.6-2.32h.03zm-11.09 3.74l-1.41 4.39a2.62 2.62 0 01-2.31 1.75 1.23 1.23 0 01-1.18-1.75l1.43-4.39-11.69 5.56 9.5 6.54 13.75-6.54-8.09-5.56zm4-17.69c3.85 0 6 3.12 4.71 7a10.77 10.77 0 01-7.42 6.76l4.29 3c0-.15.08-.3.13-.46a7 7 0 016.16-4.65c2.57 0 4 2.08 3.14 4.65a7.16 7.16 0 01-4 4.19l4 2.78-22 10.48-15.2-10.48 5.86-2.78a3.36 3.36 0 01-1.27-4.19 7 7 0 016.16-4.65c2.57 0 4 2.08 3.14 4.65 0 .16-.11.31-.17.46l6.21-3c-2.64-.74-4-3.28-3.16-6.35l.12-.41c1.28-3.84 5.42-7 9.27-7h.03zm1.27 27.9l6.76 4.64-22 10.48-15.19-10.48 9.77-4.64 2.85 2-5.65 2.68 9.5 6.55 13.75-6.55-3.91-2.68 4.12-2z" fill="#FFF"/></g><g transform="translate(-105 -1)"><circle fill="#60E2E2" fill-rule="nonzero" cx="333.7" cy="341.02" r="3.58"/><circle fill="#FFF" fill-rule="nonzero" cx="345.07" cy="329.91" r="3.58"/><circle fill="#FFF" fill-rule="nonzero" cx="367.8" cy="329.91" r="3.58"/><circle fill="#FFF" fill-rule="nonzero" cx="356.43" cy="341.02" r="3.58"/><circle fill="#60E2E2" fill-rule="nonzero" cx="367.82" cy="341.02" r="3.58"/><circle fill="#FFF" fill-rule="nonzero" cx="379.19" cy="329.91" r="3.58"/><circle fill="#FFF" fill-rule="nonzero" cx="401.92" cy="329.91" r="3.58"/><circle fill="#FFF" fill-rule="nonzero" cx="390.55" cy="341.02" r="3.58"/><circle fill="#60E2E2" fill-rule="nonzero" cx="401.94" cy="341.02" r="3.58"/><circle fill="#FFF" fill-rule="nonzero" cx="413.31" cy="329.91" r="3.58"/><circle fill="#FFF" fill-rule="nonzero" cx="436.04" cy="329.91" r="3.58"/><circle fill="#60E2E2" fill-rule="nonzero" cx="424.67" cy="341.02" r="3.58"/><circle fill="#60E2E2" fill-rule="nonzero" cx="333.7" cy="313.41" r="3.58"/><circle fill="#60E2E2" fill-rule="nonzero" cx="345.07" cy="302.29" r="3.58"/><circle fill="#FFF" fill-rule="nonzero" cx="367.8" cy="302.29" r="3.58"/><circle fill="#60E2E2" fill-rule="nonzero" cx="356.43" cy="313.41" r="3.58"/><circle fill="#FFF" fill-rule="nonzero" cx="367.82" cy="313.41" r="3.58"/><circle fill="#60E2E2" fill-rule="nonzero" cx="379.19" cy="302.29" r="3.58"/><circle fill="#60E2E2" fill-rule="nonzero" cx="401.92" cy="302.29" r="3.58"/><circle fill="#60E2E2" fill-rule="nonzero" cx="390.55" cy="313.41" r="3.58"/><circle fill="#60E2E2" fill-rule="nonzero" cx="401.94" cy="313.41" r="3.58"/><circle fill="#60E2E2" fill-rule="nonzero" cx="413.31" cy="302.29" r="3.58"/><circle fill="#60E2E2" fill-rule="nonzero" cx="436.04" cy="302.29" r="3.58"/><circle fill="#60E2E2" fill-rule="nonzero" cx="424.67" cy="313.41" r="3.58"/><circle fill="#60E2E2" fill-rule="nonzero" cx="333.7" cy="285.79" r="3.58"/><circle fill="#60E2E2" fill-rule="nonzero" cx="345.07" cy="274.68" r="3.58"/><circle fill="#60E2E2" fill-rule="nonzero" cx="367.8" cy="274.68" r="3.58"/><circle fill="#FFF" fill-rule="nonzero" cx="356.43" cy="285.79" r="3.58"/><circle fill="#60E2E2" fill-rule="nonzero" cx="367.82" cy="285.79" r="3.58"/><circle fill="#60E2E2" fill-rule="nonzero" cx="379.19" cy="274.68" r="3.58"/><circle fill="#60E2E2" fill-rule="nonzero" cx="401.92" cy="274.68" r="3.58"/><circle fill="#60E2E2" fill-rule="nonzero" cx="390.55" cy="285.79" r="3.58"/><circle fill="#60E2E2" fill-rule="nonzero" cx="401.94" cy="285.79" r="3.58"/><circle fill="#60E2E2" fill-rule="nonzero" cx="413.31" cy="274.68" r="3.58"/><circle fill="#60E2E2" fill-rule="nonzero" cx="436.04" cy="274.68" r="3.58"/><circle fill="#60E2E2" fill-rule="nonzero" cx="424.67" cy="285.79" r="3.58"/><path fill="#FFF" fill-rule="nonzero" d="M368.3 313.41h-1v-10.96l-11.28-16.37.82-.57 11.46 16.63z"/><path fill="#60E2E2" fill-rule="nonzero" d="M378.834 302.641l.7-.715 11.367 11.117-.699.715zM412.953 275.031l.707-.707 11.243 11.243-.707.707z"/><path fill="#FFF" fill-rule="nonzero" d="M413.31 329.41h22.73v1h-22.73zM356.31 341.86l-11.6-11.6.71-.71 10.89 10.89 11.31-11.31.7.71z"/><path fill="#60E2E2" fill-rule="nonzero" d="M367.3 274.68h1v11.12h-1z"/><circle fill="#60E2E2" fill-rule="nonzero" cx="407.04" cy="354.68" r="3.58"/><circle fill="#FFF" fill-rule="nonzero" cx="395.67" cy="365.79" r="3.58"/><circle fill="#FFF" fill-rule="nonzero" cx="372.94" cy="365.79" r="3.58"/><circle fill="#FFF" fill-rule="nonzero" cx="384.31" cy="354.68" r="3.58"/><circle fill="#60E2E2" fill-rule="nonzero" cx="372.92" cy="354.68" r="3.58"/><circle fill="#FFF" fill-rule="nonzero" cx="361.55" cy="365.79" r="3.58"/><circle fill="#FFF" fill-rule="nonzero" cx="338.82" cy="365.79" r="3.58"/><circle fill="#FFF" fill-rule="nonzero" cx="350.19" cy="354.68" r="3.58"/><circle fill="#60E2E2" fill-rule="nonzero" cx="338.8" cy="354.68" r="3.58"/><circle fill="#FFF" fill-rule="nonzero" cx="327.43" cy="365.79" r="3.58"/><circle fill="#FFF" fill-rule="nonzero" cx="304.7" cy="365.79" r="3.58"/><circle fill="#60E2E2" fill-rule="nonzero" cx="316.07" cy="354.68" r="3.58"/><circle fill="#60E2E2" fill-rule="nonzero" cx="407.04" cy="382.29" r="3.58"/><circle fill="#60E2E2" fill-rule="nonzero" cx="395.67" cy="393.41" r="3.58"/><circle fill="#FFF" fill-rule="nonzero" cx="372.94" cy="393.41" r="3.58"/><circle fill="#60E2E2" fill-rule="nonzero" cx="384.31" cy="382.29" r="3.58"/><circle fill="#FFF" fill-rule="nonzero" cx="372.92" cy="382.29" r="3.58"/><circle fill="#60E2E2" fill-rule="nonzero" cx="361.55" cy="393.41" r="3.58"/><circle fill="#60E2E2" fill-rule="nonzero" cx="338.82" cy="393.41" r="3.58"/><circle fill="#60E2E2" fill-rule="nonzero" cx="350.19" cy="382.29" r="3.58"/><circle fill="#60E2E2" fill-rule="nonzero" cx="338.8" cy="382.29" r="3.58"/><circle fill="#60E2E2" fill-rule="nonzero" cx="327.43" cy="393.41" r="3.58"/><circle fill="#60E2E2" fill-rule="nonzero" cx="304.7" cy="393.41" r="3.58"/><circle fill="#60E2E2" fill-rule="nonzero" cx="316.07" cy="382.29" r="3.58"/><circle fill="#60E2E2" fill-rule="nonzero" cx="407.04" cy="409.91" r="3.58"/><circle fill="#60E2E2" fill-rule="nonzero" cx="395.67" cy="421.02" r="3.58"/><circle fill="#60E2E2" fill-rule="nonzero" cx="372.94" cy="421.02" r="3.58"/><circle fill="#FFF" fill-rule="nonzero" cx="384.31" cy="409.91" r="3.58"/><circle fill="#60E2E2" fill-rule="nonzero" cx="372.92" cy="409.91" r="3.58"/><circle fill="#60E2E2" fill-rule="nonzero" cx="361.55" cy="421.02" r="3.58"/><circle fill="#60E2E2" fill-rule="nonzero" cx="338.82" cy="421.02" r="3.58"/><circle fill="#60E2E2" fill-rule="nonzero" cx="350.19" cy="409.91" r="3.58"/><circle fill="#60E2E2" fill-rule="nonzero" cx="338.8" cy="409.91" r="3.58"/><circle fill="#60E2E2" fill-rule="nonzero" cx="327.43" cy="421.02" r="3.58"/><circle fill="#60E2E2" fill-rule="nonzero" cx="304.7" cy="421.02" r="3.58"/><circle fill="#60E2E2" fill-rule="nonzero" cx="316.07" cy="409.91" r="3.58"/><path fill="#FFF" fill-rule="nonzero" d="M372.44 382.29h1v10.96l11.28 16.37-.83.57-11.45-16.63z"/><path fill="#60E2E2" fill-rule="nonzero" d="M349.835 382.638l.7-.715 11.367 11.117-.699.715zM315.829 410.135l.707-.707 11.243 11.243-.707.707z"/><path fill="#FFF" fill-rule="nonzero" d="M304.7 365.29h22.73v1H304.7zM384.43 353.84l11.6 11.6-.71.71-10.89-10.89-11.31 11.31-.7-.71z"/><path fill="#60E2E2" fill-rule="nonzero" d="M372.44 409.91h1v11.12h-1z"/><path fill="#23324F" fill-rule="nonzero" d="M477.87 420.91h-64l-15-83h79z"/><path d="M571.51 392.12h1c-16.3-8.63-26.84 4.79-26.84 4.79H532.2v-15.34h14.38l20.36-7.72a15.06 15.06 0 0114 1.74l3.06 2.14 8 8a3.72 3.72 0 01-2.63 6.36l-17.86.03z" fill="#2BA5A5" fill-rule="nonzero"/><path d="M474.68 303.91h-20.9c7 20.57 4.28 93 26.14 93h52.28v-15.34l-12.33-1.85c-7-.81-1-75.81-45.19-75.81z" fill="#23324F" fill-rule="nonzero"/><path d="M470.87 344.18v-40.27H437.7a44.07 44.07 0 00-42 56.76c6.477 21.511 26.285 36.236 48.75 36.24h52.28v-15.34l-12.34-1.85a99 99 0 01-46.65-20.2l44.61 12.46-11.48-27.8z" fill="#23324F" fill-rule="nonzero"/><path d="M536.04 392.12h1c-16.3-8.63-26.85 4.79-26.85 4.79h-13.46v-15.34h14.38l20.35-7.72a15.05 15.05 0 0114 1.74l3.06 2.14 8 8a3.73 3.73 0 01-2.63 6.36l-17.85.03z" fill="#3DC6C9" fill-rule="nonzero"/><path fill="#162335" fill-rule="nonzero" d="M610.28 389.08h3.22v2.61h-3.22z"/><path fill="#2E528E" fill-rule="nonzero" d="M613.51 389.08h5.37v2.61h-5.37z"/><path fill="#162335" fill-rule="nonzero" d="M596.53 389.08h3.22v2.61h-3.22z"/><path fill="#2E528E" fill-rule="nonzero" d="M599.75 389.08h5.37v2.61h-5.37z"/><path fill="#162335" fill-rule="nonzero" d="M587.93 389.08h3.22v2.61h-3.22z"/><path fill="#2E528E" fill-rule="nonzero" d="M591.15 389.08h5.37v2.61h-5.37z"/><path fill="#162335" fill-rule="nonzero" d="M579.33 389.08h3.22v2.61h-3.22z"/><path fill="#2E528E" fill-rule="nonzero" d="M582.55 389.08h5.37v2.61h-5.37z"/><path fill="#162335" fill-rule="nonzero" d="M570.73 389.08h3.22v2.61h-3.22z"/><path fill="#2E528E" fill-rule="nonzero" d="M573.96 389.08h5.37v2.61h-5.37z"/><path fill="#162335" fill-rule="nonzero" d="M562.13 389.08h3.22v2.61h-3.22z"/><path fill="#2E528E" fill-rule="nonzero" d="M565.36 389.08h5.37v2.61h-5.37z"/><path fill="#162335" fill-rule="nonzero" d="M550.1 389.08h3.22v2.61h-3.22z"/><path fill="#2E528E" fill-rule="nonzero" d="M553.32 389.08h5.37v2.61h-5.37z"/><path fill="#162335" fill-rule="nonzero" d="M541.5 389.08h3.22v2.61h-3.22z"/><path fill="#2E528E" fill-rule="nonzero" d="M544.72 389.08h5.37v2.61h-5.37z"/><path fill="#162335" fill-rule="nonzero" d="M529.46 389.08h3.22v2.61h-3.22z"/><path fill="#2E528E" fill-rule="nonzero" d="M532.69 389.08h5.37v2.61h-5.37zM546.66 391.69h77.38v5.22h-77.38z"/><path fill="#162335" fill-rule="nonzero" d="M522.58 391.69h24.07v5.22h-24.07z"/><rect fill="#23324F" fill-rule="nonzero" x="742.54" y="238.91" width="151" height="113" rx="4.29"/><path d="M810.54 392.91h41a4 4 0 014 4h-45v-4z" fill="#2E528E" fill-rule="nonzero"/><path d="M800.54 392.91h10v4h-14a4 4 0 014-4z" fill="#162335" fill-rule="nonzero"/><path d="M818.25 290.91h11.62a5.66 5.66 0 015.66 5.66v96.34h-17.28v-102z" fill="#2E528E" fill-rule="nonzero"/><path d="M818.25 290.91v102h-4.71v-97.29a4.71 4.71 0 014.71-4.71z" fill="#162335" fill-rule="nonzero"/><rect fill="#23324F" fill-rule="nonzero" transform="rotate(-90 688.04 314.4)" x="612.54" y="265.9" width="151" height="97" rx="3.98"/><path d="M680.54 392.91h41a4 4 0 014 4h-45v-4z" fill="#2E528E" fill-rule="nonzero"/><path d="M670.54 392.91h10v4h-14a4 4 0 014-4z" fill="#162335" fill-rule="nonzero"/><path d="M688.25 313.91h12.3a5 5 0 015 5v74h-17.3v-79z" fill="#2E528E" fill-rule="nonzero"/><path d="M688 313.91h.22v79h-4.71V318.4a4.49 4.49 0 014.49-4.49z" fill="#162335" fill-rule="nonzero"/><path d="M467.02 319.91h-2.08a29.68 29.68 0 01-23.07-11v-35h31v40.15a5.85 5.85 0 01-5.85 5.85z" fill="#2BA5A5" fill-rule="nonzero"/><circle fill="#60E2E2" fill-rule="nonzero" cx="451.31" cy="255.09" r="32.93"/><path d="M418.33 223.68a39.85 39.85 0 0127.64 11.1v-1.87c.011-18.219-12.29-34.144-29.922-38.734-17.631-4.59-36.137 3.314-45.012 19.225-8.874 15.912-5.876 35.81 7.294 48.399 1.005-21.354 18.622-38.144 40-38.12z" fill="#60E2E2" fill-rule="nonzero"/><path d="M479.41 251.05h-19c-8.785.006-15.904 7.125-15.91 15.91a5.73 5.73 0 100 11.46c-.27 11.35 6.35 18.49 18.69 18.69h3.72a17.31 17.31 0 0017.31-17.32v-23.88a4.83 4.83 0 00-4.81-4.86z" fill="#3DC6C9" fill-rule="nonzero"/><path d="M160.61 390.69v-4.13l-9-5.17v-10.35l-.74-.42-2.84-1.64-3.55-2.07v-1.71l1.48-.85 3.58 2.07 2.84 1.64.74.43 9-5.17 9 5.17.74-.43 2.84-1.64-12.54-7.24-9 5.17-3.58-2.06-3.58 2.06 16.12-9.3 16.12 9.3 1.48.85v1.71l-3.59 2.07-2.84 1.64-.74.42v10.35l-9 5.17v4.13l12.53-7.24v-10.34l3.59-2.07v14.48l-16.12 9.31-1.48.85-1.47-.85-16.13-9.31v-14.48l2.85 1.65.74.42v10.34l12.54 7.24h.01zm-19.74-25.85v22.75l10.59 6.11 9.12 5.27 1.47.85 1.48-.85 9.11-5.27 10.59-6.11v-24.45l-1.48-.85-9.11-5.27-10.56-6.11-10.59 6.11-9.11 5.27-1.48.85-.03 1.7z" fill="#FFF"/></g><g transform="translate(311 395)" fill-rule="nonzero"><path d="M21.07 15h460v2.92A7.08 7.08 0 01474 25H28.15a7.08 7.08 0 01-7.08-7.08V15z" fill="#23324F"/><rect fill="#588ADB" x=".07" y=".98" width="493" height="14" rx="7"/><rect fill="#2E528E" x=".4" y="1.01" width="143.67" height="14" rx="7"/></g><g fill-rule="nonzero"><path d="M321.87 73.78a15.23 15.23 0 015.3 3.6 15.91 15.91 0 013.36 5.53 20.36 20.36 0 011.16 7v27.9h-5.43a5.48 5.48 0 01-2.56-.47 3.51 3.51 0 01-1.44-2l-.95-2.84c-1.12 1-2.2 1.83-3.25 2.58a18.67 18.67 0 01-3.25 1.87 16.1 16.1 0 01-3.6 1.14 21.52 21.52 0 01-4.28.39c-1.81.02-3.61-.24-5.34-.77a11.63 11.63 0 01-4.16-2.31 10.18 10.18 0 01-2.69-3.81 13.62 13.62 0 01-.95-5.25 10.78 10.78 0 011.25-4.91 12 12 0 014.29-4.52 27.13 27.13 0 018.09-3.31 56.68 56.68 0 0112.68-1.49v-2.26c0-2.79-.58-4.83-1.76-6.14a6.48 6.48 0 00-5.08-2 12.53 12.53 0 00-4.09.58 20.68 20.68 0 00-2.87 1.25l-2.3 1.25c-.771.4-1.631.6-2.5.58a3.45 3.45 0 01-2.09-.62 5.83 5.83 0 01-1.4-1.49l-2.14-3.75a26.54 26.54 0 018.66-5.27 29.26 29.26 0 0110.25-1.75 18.39 18.39 0 017.09 1.29zm-83.01-19.2a30.42 30.42 0 0110.44 1.74 23.36 23.36 0 018.12 4.85l-3.12 6.07a4.93 4.93 0 01-1.22 1.44 2.72 2.72 0 01-1.62.45 4.06 4.06 0 01-2.05-.66c-.73-.45-1.58-.93-2.56-1.45a25.66 25.66 0 00-3.36-1.44 13.45 13.45 0 00-4.43-.67c-2.993 0-5.233.667-6.72 2a6.68 6.68 0 00-2.24 5.23 4.88 4.88 0 001.23 3.42 10.42 10.42 0 003.23 2.35 29.27 29.27 0 004.54 1.76c1.687.52 3.423 1.09 5.21 1.71a44.71 44.71 0 015.21 2.17c1.667.81 3.2 1.87 4.55 3.14a14.44 14.44 0 013.22 4.63 16.2 16.2 0 011.23 6.66 21.32 21.32 0 01-1.48 8 18.84 18.84 0 01-4.29 6.51 19.78 19.78 0 01-6.91 4.37 25.69 25.69 0 01-9.32 1.59 29.75 29.75 0 01-5.93-.6 33.81 33.81 0 01-5.68-1.68 32.17 32.17 0 01-5.15-2.58 23.44 23.44 0 01-4.22-3.36l3.79-6.12a3.92 3.92 0 011.25-1.14 3.22 3.22 0 011.64-.45 4.49 4.49 0 012.45.86c.86.57 1.86 1.21 3 1.89a23.62 23.62 0 003.9 1.9 14.79 14.79 0 005.32.86c3.02 0 5.353-.69 7-2.07a7.55 7.55 0 002.48-6.15 5.78 5.78 0 00-1.23-3.84 10 10 0 00-3.27-2.46 25.24 25.24 0 00-4.52-1.7c-1.7-.48-3.43-1-5.21-1.57a44.12 44.12 0 01-5.21-2.07 16.21 16.21 0 01-4.53-3.19 15 15 0 01-3.2-4.91 18.85 18.85 0 01-1.23-7.28c0-2.323.47-4.623 1.38-6.76a17 17 0 014-5.81 20.09 20.09 0 016.57-4.09 23.93 23.93 0 018.94-1.55zM105.59 73.35v28.21a8.71 8.71 0 001.7 5.75 6.21 6.21 0 005.06 2 10.37 10.37 0 004.69-1.1 16.86 16.86 0 004.18-3V73.35h11.86v44.4h-7.32a2.77 2.77 0 01-2.93-2.06l-.78-3.1a29.92 29.92 0 01-2.75 2.36 17.8 17.8 0 01-3 1.86 16.69 16.69 0 01-3.49 1.2 18 18 0 01-4.07.43 15.65 15.65 0 01-6.44-1.25 12.88 12.88 0 01-4.71-3.48 15.45 15.45 0 01-2.89-5.34 22.32 22.32 0 01-1-6.81V73.35h11.89zm167.28-13.26h6.2v13.52h11.45v8.3h-11.41v23.17a4.49 4.49 0 00.88 2.93 3.07 3.07 0 002.52 1.07 4.79 4.79 0 001.46-.19 5.73 5.73 0 001-.43l.79-.43a1.61 1.61 0 01.76-.19 1.47 1.47 0 01.86.23c.28.219.515.49.69.8l3.57 5.68a17.46 17.46 0 01-5.55 2.93 21 21 0 01-6.38.96 15 15 0 01-5.34-.88 10.35 10.35 0 01-6.33-6.48 15.66 15.66 0 01-.82-5.26V81.91h-4.18a2.19 2.19 0 01-2.28-2.41v-4.68l7.11-1.29 2.41-11.5a2.41 2.41 0 012.59-1.94zm96.54 14.29a21.36 21.36 0 016.89 4.74l-3.1 4.14a4.68 4.68 0 01-1 1.05 2.46 2.46 0 01-1.47.37 3.09 3.09 0 01-1.65-.5c-.53-.33-1.14-.68-1.83-1.07a15.07 15.07 0 00-2.46-1.08 10.85 10.85 0 00-3.53-.49 10.43 10.43 0 00-4.63 1 8.71 8.71 0 00-3.25 2.78 12.69 12.69 0 00-1.92 4.39 25.28 25.28 0 00-.62 5.82c0 4.54.91 8.013 2.73 10.42a8.89 8.89 0 007.48 3.62 12.21 12.21 0 002.82-.28 9.91 9.91 0 002.06-.71 8.53 8.53 0 001.53-.95c.43-.34.84-.66 1.23-1a8 8 0 011.18-.72 3.12 3.12 0 011.32-.28 2.55 2.55 0 012.15 1l3.4 4.3a19.86 19.86 0 01-4.05 3.64 20.82 20.82 0 01-4.45 2.28 22.91 22.91 0 01-4.68 1.17 35.54 35.54 0 01-4.69.32 19.88 19.88 0 01-7.8-1.43 18.49 18.49 0 01-6.42-4.46 21.41 21.41 0 01-4.37-7.19 27.23 27.23 0 01-1.61-9.73 27.81 27.81 0 011.42-9 20.52 20.52 0 014.17-7.24 19.26 19.26 0 016.83-4.8 23.75 23.75 0 019.41-1.75 22.52 22.52 0 018.91 1.64zm25.15-20.84v36.44h2a3.93 3.93 0 001.77-.33 3.84 3.84 0 001.29-1.18l9.82-13.09a5.23 5.23 0 011.64-1.47 4.84 4.84 0 012.35-.52h10.85l-12.75 16.2a11.77 11.77 0 01-3.49 3.18 8 8 0 011.72 1.6c.52.634.999 1.302 1.43 2l13.73 21.4h-10.68a5.69 5.69 0 01-2.37-.45 3.61 3.61 0 01-1.63-1.61l-10-16.33a3.24 3.24 0 00-1.25-1.33 4.82 4.82 0 00-1.94-.3h-2.5v20h-11.87V53.54h11.88zM89.71 55.27v10.12H62.92v17.27H85.4v10.16H62.92v24.93h-13V55.27h39.79zm65.16-1.73v64.21h-11.89V53.54h11.89zm21.87 0v64.21h-11.87V53.54h11.87zm143.33 45.65a56.3 56.3 0 00-7.2.72 17.41 17.41 0 00-4.59 1.4 6 6 0 00-2.41 2 4.95 4.95 0 00.73 6 6.7 6.7 0 004 1.07c1.77.06 3.53-.283 5.15-1a15.45 15.45 0 004.32-3.3v-6.89zm-110.9-12.4v9.73h-22.74v-9.73h22.74z" fill="#60E2E2"/><path d="M223.36 141.99a9.13 9.13 0 014.06.88 8.36 8.36 0 013.11 2.58 12.42 12.42 0 012 4.2 21.23 21.23 0 01.71 5.75 17.67 17.67 0 01-.79 5.4 13.21 13.21 0 01-2.24 4.32 10.33 10.33 0 01-8.29 3.92 9 9 0 01-7-2.94v11.37h-5v-35h3a1.23 1.23 0 011.31 1l.45 2.93a16.56 16.56 0 011.76-1.79 10.58 10.58 0 014.31-2.3 10.43 10.43 0 012.61-.32zm-26.41 1.02a10.84 10.84 0 014 2.71 12.09 12.09 0 012.52 4.25 18.39 18.39 0 010 11.18 12 12 0 01-2.52 4.25 10.94 10.94 0 01-4 2.7 14 14 0 01-5.22.94 14.11 14.11 0 01-5.25-.94 11.15 11.15 0 01-4-2.7 11.89 11.89 0 01-2.54-4.25 18 18 0 010-11.18 12 12 0 012.54-4.25 11 11 0 014-2.71 13.91 13.91 0 014.802-.94h.448a13.75 13.75 0 015.22.94zm-97.92-.94a12.18 12.18 0 014.42.78 9.86 9.86 0 013.49 2.29 10.5 10.5 0 012.31 3.68 13.92 13.92 0 01.84 5 3.23 3.23 0 01-.26 1.56 1.06 1.06 0 01-1 .4H91.71a14.24 14.24 0 00.68 4.08 8.22 8.22 0 001.63 2.9 6.52 6.52 0 002.49 1.73 8.71 8.71 0 003.22.57 9.56 9.56 0 002.9-.39 14.18 14.18 0 002.12-.84c.59-.3 1.09-.58 1.49-.83a2.1 2.1 0 011.07-.39 1.1 1.1 0 011 .46l1.4 1.84a10.09 10.09 0 01-2.14 1.87 12.37 12.37 0 01-2.58 1.27c-.915.33-1.86.574-2.82.73-.95.15-1.909.227-2.87.23a13.5 13.5 0 01-5-.92 11.14 11.14 0 01-4-2.68 12.4 12.4 0 01-2.63-4.38 18 18 0 01-.94-6 15.06 15.06 0 01.85-5.09 12.24 12.24 0 012.44-4.12 11.24 11.24 0 013.85-2.75 12.74 12.74 0 015.16-1zm52.75-.01a12.22 12.22 0 014.42.78 9.86 9.86 0 013.49 2.29 10.5 10.5 0 012.31 3.68 13.92 13.92 0 01.84 5 3.23 3.23 0 01-.26 1.56 1.06 1.06 0 01-.95.4h-17.19c.024 1.385.25 2.76.67 4.08a8.39 8.39 0 001.64 2.9 6.52 6.52 0 002.49 1.73 8.71 8.71 0 003.22.57 9.56 9.56 0 002.9-.39 14.63 14.63 0 002.12-.84c.59-.3 1.09-.58 1.49-.83a2.07 2.07 0 011.07-.39 1.11 1.11 0 011 .46l1.4 1.85a10.09 10.09 0 01-2.14 1.87 12.37 12.37 0 01-2.58 1.27c-.915.33-1.86.574-2.82.73a18.84 18.84 0 01-2.88.23 13.48 13.48 0 01-5-.92 11.14 11.14 0 01-4-2.68 12.4 12.4 0 01-2.63-4.38 17.7 17.7 0 01-.94-6 14.82 14.82 0 01.85-5.09 12.24 12.24 0 012.44-4.12 11.24 11.24 0 013.88-2.76 12.74 12.74 0 015.16-1zm97.98 0a12.22 12.22 0 014.42.78 9.86 9.86 0 013.49 2.29 10.5 10.5 0 012.31 3.68 13.92 13.92 0 01.84 5 3.23 3.23 0 01-.26 1.56 1.07 1.07 0 01-1 .4h-17.14c.024 1.385.25 2.76.67 4.08a8.24 8.24 0 001.64 2.9 6.52 6.52 0 002.49 1.73 8.71 8.71 0 003.22.57 9.56 9.56 0 002.9-.39 14.63 14.63 0 002.12-.84c.59-.3 1.09-.58 1.49-.83a2.07 2.07 0 011.07-.39c.39-.032.77.142 1 .46l1.4 1.85a10.09 10.09 0 01-2.14 1.87 12.37 12.37 0 01-2.58 1.27c-.915.33-1.86.574-2.82.73a18.84 18.84 0 01-2.88.23 13.48 13.48 0 01-5-.92 11.14 11.14 0 01-4-2.68 12.4 12.4 0 01-2.63-4.38 17.7 17.7 0 01-.94-6 14.82 14.82 0 01.85-5.09 12.24 12.24 0 012.44-4.12 11.24 11.24 0 013.88-2.76 12.74 12.74 0 015.16-1zm28.53-.02a7 7 0 011.61.19 4.36 4.36 0 011.33.58l-.34 3.79a.81.81 0 01-.85.7 6.58 6.58 0 01-1.08-.14 7.64 7.64 0 00-1.55-.14 5.89 5.89 0 00-2.14.35 4.87 4.87 0 00-1.66 1 6.71 6.71 0 00-1.3 1.67 15.88 15.88 0 00-1.06 2.26v16.4h-5v-26.2h2.89a1.58 1.58 0 011.12.3c.237.285.387.632.43 1l.27 3.71a12.05 12.05 0 013.05-4 6.49 6.49 0 014.28-1.47zm-206.48-9.02a17 17 0 015.8 3.78 16.71 16.71 0 013.75 5.85 20.56 20.56 0 011.33 7.51 20.55 20.55 0 01-1.33 7.56 16.67 16.67 0 01-3.75 5.84 17 17 0 01-5.8 3.78 20.23 20.23 0 01-6.988 1.34H50.38v-37h13.93a20.23 20.23 0 017.5 1.34zm44.21 9.46a1.69 1.69 0 011 .28c.25.178.434.435.52.73l6.26 16.09c.22.67.42 1.33.58 2 .16.67.31 1.32.45 2 .14-.66.29-1.31.47-2s.37-1.33.61-2l6.35-16.09a1.45 1.45 0 01.54-.73 1.6 1.6 0 01.93-.28h3.93l-10.62 26.2h-4.54l-10.63-26.2h4.15zm57.38-11.86v38.06h-5.05v-38.06h5.05zm48.32 15.45a7.24 7.24 0 00-3.81 1 11.07 11.07 0 00-3 2.79l.03 12.37a7.12 7.12 0 002.66 2.27 7.78 7.78 0 003.22.65 6.34 6.34 0 005.35-2.49c1.26-1.66 1.89-4.08 1.89-7.26a18.13 18.13 0 00-.43-4.27 8.1 8.1 0 00-1.23-2.89 5 5 0 00-2-1.65 6.57 6.57 0 00-2.68-.52zm-35.6 2.46c-1.227 1.667-1.84 4-1.84 7a11.7 11.7 0 001.84 7 6.51 6.51 0 005.61 2.59 6.43 6.43 0 005.55-2.5 14.48 14.48 0 000-14.09 6.42 6.42 0 00-5.55-2.52 6.5 6.5 0 00-5.61 2.52zM64.78 136.09h-8.91v28.15h8.41a14.053 14.053 0 005.27-1 11 11 0 004-2.77 12.73 12.73 0 002.57-4.43c.64-1.894.96-3.88.95-5.88a18.07 18.07 0 00-.9-5.91 12.59 12.59 0 00-2.57-4.44 11 11 0 00-4-2.77 13.86 13.86 0 00-4.82-.95zm29.38 11.47a8.88 8.88 0 00-2.29 5.11l13.69-.03a8.68 8.68 0 00-.42-2.76 6.37 6.37 0 00-1.25-2.19 5.9 5.9 0 00-2-1.45 6.85 6.85 0 00-2.73-.51 6.72 6.72 0 00-5 1.83zm52.73.03a8.88 8.88 0 00-2.31 5.08l13.71-.03a8.41 8.41 0 00-.42-2.73 6.06 6.06 0 00-1.25-2.19 5.76 5.76 0 00-2-1.45 6.85 6.85 0 00-2.73-.51 6.72 6.72 0 00-5 1.83zm98 0a8.88 8.88 0 00-2.31 5.08l13.69-.03a8.41 8.41 0 00-.4-2.73 6.06 6.06 0 00-1.25-2.19 5.76 5.76 0 00-2-1.45 6.85 6.85 0 00-2.73-.51 6.71 6.71 0 00-5 1.83z" fill="#FFF"/></g></g></g></svg>